<?xml version="1.0" standalone="no"?>
<!DOCTYPE svg PUBLIC "-//W3C//DTD SVG 20010904//EN"
 "http://www.w3.org/TR/2001/REC-SVG-20010904/DTD/svg10.dtd">
<svg version="1.0" xmlns="http://www.w3.org/2000/svg"
 width="1214.000000pt" height="1214.000000pt" viewBox="0 0 1214.000000 1214.000000"
 preserveAspectRatio="xMidYMid meet">
<metadata>
Created by potrace 1.11, written by Peter Selinger 2001-2013
</metadata>
<g transform="translate(0.000000,1214.000000) scale(0.100000,-0.100000)"
fill="#000000" stroke="none">
<path d="M0 6070 l0 -6070 6070 0 6070 0 0 6070 0 6070 -6070 0 -6070 0 0
-6070z m11810 5572 c3 -1507 -1 -11306 -4 -11309 -3 -3 -7962 -6 -11153 -3
l-321 0 0 5739 0 5739 5739 0 5739 1 0 -167z"/>
<path d="M5969 10956 c-2 -2 -35 -7 -74 -10 -106 -9 -251 -42 -303 -69 -30
-16 -68 -50 -106 -97 -66 -81 -91 -95 -186 -105 -135 -14 -178 -30 -325 -124
-297 -188 -524 -459 -665 -794 -110 -261 -177 -576 -174 -822 1 -110 14 -357
19 -363 1 -2 15 -5 31 -8 16 -2 90 -15 164 -29 137 -24 188 -32 248 -41 28 -3
33 -1 28 13 -13 46 -38 149 -41 172 -2 14 -6 42 -9 61 -18 102 -16 117 17 111
5 -1 88 -13 185 -27 98 -13 187 -27 200 -29 21 -5 22 -9 22 -139 l0 -133 580
0 580 0 1 21 c1 12 1 54 1 94 0 79 -5 74 73 74 14 0 49 0 78 -1 l53 -1 0 -92
-1 -93 582 -1 581 -1 0 111 c0 61 1 121 1 132 1 18 9 23 54 29 28 4 61 9 72
11 11 2 38 6 60 8 22 3 49 7 60 10 11 2 42 7 69 11 l49 7 -6 -85 c-4 -46 -9
-91 -11 -98 -3 -8 -7 -33 -10 -55 l-5 -41 47 9 c26 4 58 11 72 13 14 3 74 14
134 25 61 11 112 20 114 20 3 0 -4 87 -13 160 -3 19 -7 58 -10 86 -3 28 -8 61
-10 75 -3 13 -8 44 -11 69 -3 25 -7 52 -9 60 -2 8 -7 31 -10 50 -43 259 -150
590 -266 822 -274 548 -713 879 -1294 977 -33 5 -76 13 -95 16 -39 8 -534 17
-541 11z m-339 -921 c43 -52 322 -210 480 -273 225 -88 514 -162 735 -187 33
-4 62 -9 65 -10 3 -2 37 -7 75 -10 38 -4 77 -9 88 -11 10 -1 53 -6 95 -9 42
-3 88 -8 102 -10 14 -2 66 -7 115 -10 50 -3 101 -8 115 -10 14 -2 68 -7 120
-10 104 -7 129 -18 167 -74 41 -61 76 -181 98 -333 7 -52 10 -50 -95 -63 -25
-3 -52 -8 -60 -10 -8 -2 -40 -7 -70 -10 -30 -3 -72 -10 -92 -14 -44 -10 -40
-23 -39 152 0 53 -3 97 -7 98 -9 0 -1065 0 -1117 0 l-40 -1 0 -130 c0 -80 -4
-131 -10 -133 -5 -2 -50 -3 -100 -3 l-90 1 0 133 0 132 -25 1 c-34 0 -1089 0
-1117 0 -23 -1 -23 -3 -23 -126 l0 -125 -27 4 c-16 3 -77 12 -138 21 -60 9
-123 18 -140 20 -16 3 -54 8 -82 11 l-53 7 2 38 c2 59 -2 57 113 74 22 3 72
14 110 25 396 108 719 414 799 759 17 73 16 67 16 86 0 19 14 19 30 0z m401
-952 c3 -181 3 -423 -1 -424 -3 -1 -204 -2 -448 -3 -386 -1 -443 1 -446 14 -3
8 -4 111 -4 228 l0 212 449 0 449 0 1 -27z m1364 -200 c0 -123 -2 -224 -5
-224 -3 -1 -204 -2 -447 -3 -290 -1 -443 2 -444 9 -4 27 -5 431 -1 438 2 4
204 6 450 5 l447 -3 0 -222z"/>
<path d="M3489 8528 c-1 -2 -2 -377 -3 -834 l-1 -831 -81 -79 c-45 -43 -95
-101 -111 -129 -177 -302 -139 -726 85 -953 31 -32 68 -65 82 -73 l25 -16 0
-681 c0 -440 4 -684 10 -691 6 -5 33 -12 60 -15 28 -4 115 -18 195 -31 80 -14
161 -27 180 -29 19 -3 107 -17 195 -31 88 -14 203 -32 255 -40 52 -8 106 -17
120 -19 14 -3 41 -7 60 -10 53 -8 232 -36 260 -41 23 -5 189 -31 250 -40 14
-2 39 -6 55 -9 47 -8 167 -27 196 -31 14 -2 95 -15 180 -29 85 -13 174 -28
199 -31 24 -4 47 -8 50 -10 3 -1 30 -6 60 -9 31 -4 105 -15 165 -25 125 -22
167 -21 315 5 14 2 97 15 185 29 88 14 174 28 190 31 17 3 41 7 55 9 14 2 41
6 60 9 19 4 49 8 65 10 17 2 57 9 90 15 33 6 74 13 90 15 39 6 114 18 140 21
18 3 116 19 185 30 14 2 57 9 95 15 39 6 81 13 95 15 31 5 276 44 310 50 14 2
84 13 155 25 72 12 144 23 160 26 44 5 93 13 155 24 85 15 112 19 155 24 22 3
49 7 60 10 45 8 93 16 140 22 28 3 55 10 60 15 6 7 10 258 10 715 0 623 2 707
16 717 65 50 165 217 192 325 21 82 15 432 -8 497 -42 119 -90 200 -169 283
l-31 33 0 857 c0 550 -4 856 -10 855 -6 0 -32 -4 -60 -7 -27 -3 -61 -8 -75
-10 -27 -5 -332 -54 -390 -62 -19 -3 -71 -11 -115 -19 -44 -8 -98 -17 -120
-20 -22 -3 -51 -7 -65 -10 -14 -2 -68 -11 -120 -19 -52 -8 -194 -31 -315 -50
-121 -20 -238 -38 -260 -41 -22 -3 -51 -8 -65 -10 -14 -3 -38 -7 -55 -9 -16
-3 -75 -12 -130 -21 -99 -16 -136 -22 -185 -30 -14 -2 -70 -11 -125 -20 -112
-18 -133 -21 -190 -30 -23 -3 -52 -7 -65 -10 -13 -3 -42 -7 -65 -10 -22 -4
-80 -13 -129 -21 -76 -13 -132 -13 -196 1 -3 0 -27 4 -53 9 -27 4 -56 9 -65
11 -34 6 -162 27 -184 30 -13 1 -81 12 -153 23 -71 12 -148 24 -170 27 -22 3
-47 8 -55 10 -8 2 -42 7 -75 11 -33 3 -63 8 -66 10 -4 2 -27 6 -50 9 -24 3
-96 14 -159 25 -63 10 -135 21 -160 25 -25 3 -52 8 -60 10 -8 2 -35 7 -60 10
-25 3 -97 15 -160 25 -63 11 -146 24 -185 30 -38 5 -79 11 -90 14 -18 3 -87
14 -140 22 -11 1 -65 10 -120 19 -55 9 -111 18 -125 20 -14 2 -99 16 -190 30
-91 14 -173 29 -182 31 -10 3 -19 4 -19 2z m296 -292 c22 -4 65 -11 95 -16 66
-11 103 -17 195 -30 73 -11 94 -14 185 -30 93 -16 113 -19 185 -30 39 -5 79
-11 90 -14 11 -2 41 -6 66 -10 25 -4 57 -9 70 -11 81 -14 271 -45 309 -50 25
-3 97 -15 160 -25 63 -11 133 -22 155 -25 22 -3 51 -8 65 -10 14 -3 41 -7 60
-10 19 -3 60 -10 90 -15 30 -5 73 -12 95 -15 22 -3 78 -12 125 -20 47 -7 101
-16 120 -20 19 -3 59 -8 88 -12 28 -3 53 -9 53 -12 1 -3 2 -860 3 -1903 1
-1892 1 -1897 -19 -1893 -11 3 -33 6 -50 9 -16 2 -46 6 -65 10 -55 9 -341 54
-380 60 -19 3 -93 15 -165 26 -151 25 -143 24 -305 49 -69 11 -141 22 -160 26
-73 12 -146 24 -180 29 -19 3 -136 21 -260 41 -124 20 -241 38 -260 41 -19 2
-100 15 -180 29 -80 13 -165 27 -190 30 -25 4 -46 8 -48 10 -2 2 -4 943 -2
1086 0 23 5 27 43 32 142 20 291 146 369 315 53 114 70 202 71 357 0 123 -4
151 -27 230 -15 50 -44 121 -64 159 -40 75 -133 179 -197 219 -46 29 -162 70
-175 62 -5 -3 -11 -1 -15 5 -4 6 -6 295 -6 643 0 758 -1 699 9 694 4 -3 25 -8
47 -11z m4717 -633 c0 -351 -1 -651 -1 -668 l-1 -30 -69 0 c-59 -1 -79 -6
-145 -39 -206 -101 -334 -340 -336 -627 -2 -149 19 -247 82 -376 88 -181 245
-299 412 -308 l59 -3 -1 -534 c0 -293 -1 -543 -1 -554 -1 -19 -10 -23 -73 -33
-40 -6 -82 -12 -93 -15 -11 -2 -42 -7 -70 -10 -27 -4 -75 -11 -105 -16 -30 -5
-73 -12 -95 -15 -22 -4 -47 -8 -55 -10 -8 -2 -35 -7 -60 -10 -25 -3 -101 -15
-170 -26 -69 -11 -136 -22 -150 -24 -14 -3 -43 -7 -65 -10 -22 -3 -51 -8 -65
-11 -55 -10 -67 -12 -110 -18 -25 -3 -54 -8 -65 -10 -18 -3 -68 -11 -135 -21
-14 -2 -95 -16 -180 -29 -202 -33 -534 -85 -585 -92 -22 -3 -70 -12 -107 -18
-37 -7 -71 -10 -75 -7 -5 3 -9 858 -8 1899 0 1674 2 1893 15 1896 17 5 67 13
125 21 22 3 50 8 62 10 12 3 39 7 60 10 21 3 49 7 63 10 14 3 45 8 70 11 25 3
52 7 60 9 8 2 33 7 55 10 23 3 52 8 65 10 14 3 45 8 70 11 25 3 54 8 65 10 11
2 38 7 60 9 22 3 76 12 120 20 44 7 98 16 120 20 60 8 223 34 285 45 30 5 89
15 130 21 41 6 84 13 95 15 11 2 40 7 65 10 25 3 52 7 60 9 8 2 35 7 60 10 25
3 68 10 95 15 28 5 68 12 90 15 85 13 114 17 240 39 72 12 132 21 134 20 2 -2
3 -290 3 -641z"/>
<path d="M2150 2416 l0 -836 92 0 93 0 0 330 0 330 116 0 115 0 41 -62 c23
-35 120 -183 217 -331 l176 -267 110 0 c86 0 109 3 104 13 -5 6 -58 89 -119
182 -189 288 -301 459 -308 472 -5 8 16 24 60 47 126 66 223 186 257 320 22
82 15 223 -13 301 -54 150 -199 284 -346 321 -17 4 -157 9 -312 11 l-283 4 0
-835z m537 636 c144 -34 245 -161 246 -309 1 -129 -69 -235 -193 -292 -51 -23
-66 -25 -227 -27 -155 -2 -173 -1 -174 14 -3 34 -5 617 -3 622 4 10 307 3 351
-8z"/>
<path d="M3740 2415 l0 -835 428 0 427 0 -1 88 c-1 48 -2 89 -3 92 0 3 -149 5
-331 5 -212 0 -331 4 -333 10 -2 5 -3 150 -2 320 l0 310 220 2 c121 1 232 2
248 2 l27 1 0 90 c0 65 -3 90 -12 91 -7 0 -118 0 -245 1 -128 0 -234 3 -234 6
-1 4 -2 109 -3 235 -1 145 3 227 9 228 6 1 152 3 325 4 173 1 320 3 325 4 6 0
11 37 10 91 l0 90 -427 0 -428 0 0 -835z"/>
<path d="M5851 3218 c-15 -35 -126 -264 -286 -593 -53 -110 -126 -258 -160
-330 -34 -71 -111 -229 -170 -350 -59 -121 -119 -245 -132 -275 -14 -30 -30
-63 -35 -72 -8 -17 -1 -18 92 -18 l100 0 71 148 c39 81 98 204 131 275 l61
127 51 0 c233 3 638 2 641 -1 3 -4 85 -173 211 -436 l54 -113 100 0 c99 0 99
0 91 23 -5 12 -62 130 -126 262 -202 415 -286 587 -335 690 -103 215 -339 695
-342 695 -2 0 -9 -15 -17 -32z m201 -758 l75 -155 -128 -3 c-71 -1 -187 -1
-259 0 l-130 3 47 95 c114 233 199 406 207 418 9 14 12 8 188 -358z"/>
<path d="M7160 2415 l0 -837 233 5 c244 4 283 10 409 61 221 90 402 290 478
531 34 110 39 306 11 428 -67 289 -274 514 -561 609 -94 31 -98 32 -332 36
l-238 4 0 -837z m475 630 c157 -39 314 -154 397 -290 169 -278 106 -644 -146
-844 -62 -50 -157 -102 -211 -116 -16 -5 -34 -9 -40 -11 -53 -15 -185 -23
-275 -15 -13 1 -15 80 -15 643 0 354 3 646 7 649 17 12 216 1 283 -16z"/>
<path d="M8850 2415 l0 -835 93 0 92 0 0 330 0 330 116 0 115 0 61 -93 c33
-50 131 -199 217 -330 l156 -237 111 0 c85 0 108 3 103 13 -5 6 -102 156 -217
331 -115 176 -211 324 -212 330 -2 6 27 26 65 44 118 56 214 173 254 310 22
76 16 228 -12 305 -59 162 -186 277 -356 321 -44 11 -122 15 -322 16 l-264 1
0 -836z m530 641 c47 -11 127 -56 163 -93 178 -177 78 -490 -169 -531 -32 -6
-122 -10 -199 -10 l-140 1 1 321 c1 177 2 321 3 322 8 3 322 -6 341 -10z"/>
</g>
</svg>
